<?xml version="1.0" standalone="no"?>
<svg viewBox="0 0 200 200" xmlns="http://www.w3.org/2000/svg">
  <path fill="#FF0066" d="M30.2,-53.9C41.5,-45.7,54.6,-42.4,64.9,-34.3C75.3,-26.1,82.7,-13,84,0.7C85.3,14.5,80.3,29,71.1,39C61.8,49,48.2,54.5,35.6,61.4C23.1,68.4,11.5,77,-1.9,80.2C-15.3,83.4,-30.5,81.4,-44.6,75.2C-58.7,69.1,-71.6,58.9,-80,45.7C-88.5,32.5,-92.5,16.2,-89.4,1.8C-86.3,-12.7,-76,-25.3,-65.4,-34.7C-54.7,-44,-43.6,-50.1,-32.6,-58.4C-21.6,-66.7,-10.8,-77.3,-0.7,-76.1C9.4,-74.9,18.9,-62,30.2,-53.9Z" transform="translate(100 100)" />
</svg>
