<svg xmlns="http://www.w3.org/2000/svg" viewBox="0 0 500 500">
  <rect width="100%" height="100%" fill="white" />

  <!-- Burger Icon -->
  <path d="M250 50c83.66 0 150 56.34 150 125S333.66 300 250 300 100 243.66 100 175 166.34 50 250 50zm0-50C111.93 0 0 47.82 0 125s111.93 125 250 125 250-47.82 250-125S388.07 0 250 0zm0 200c27.57 0 50-22.43 50-50s-22.43-50-50-50-50 22.43-50 50 22.43 50 50 50zm0 0" fill="#000" />

  <!-- Pizza Icon -->
  <path d="M375 225c0-68.38-55.62-124-124-124S127 156.62 127 225c0 50.94 39.25 92.91 89 98.52v79.48h20V323.52c49.75-5.61 89-47.58 89-98.52zm-209-25c0-48.52 39.48-88 88-88s88 39.48 88 88c0 43.97-33.47 80-76 84.41V375h-24v-90.59c-42.53-4.41-76-40.44-76-84.41zm0 0" fill="#000" />

  <!-- Ice Cream Icon -->
  <path d="M156 387.6c0-27.57 22.43-50 50-50s50 22.43 50 50-22.43 50-50 50-50-22.43-50-50zm0 0M313 237.45v-99.9c0-22.72-18.43-41.15-41.15-41.15-22.72 0-41.15 18.43-41.15 41.15v99.9c0 22.72 18.43 41.15 41.15 41.15 22.72 0 41.15-18.43 41.15-41.15zm0 0M250 50c-68.38 0-124 55.62-124 124v78.2c0 21.58 17.45 39.03 39.03 39.03H335.97c21.58 0 39.03-17.45 39.03-39.03v-78.2c0-68.38-55.62-124-124-124zm0 0" fill="#000" />

  <!-- Apple Icon -->
  <path d="M250 0C111.93 0 0 111.93 0 250s111.93 250 250 250 250-111.93 250-250S388.07 0 250 0zm108.7 326.33c-8.36 20.84-25.29 37.78-46.12 46.12l-14.11-14.11c14.7-9.69 24-26.1 24-44.94 0-29.55-24-53.56-53.56-53.56-18.84 0-35.26 9.3-44.95 24.01l-14.1-14.11c8.36-20.84 25.28-37.78 46.12-46.12l-7.86-7.86c-28.63-28.63-75.18-28.63-103.81 0-28.63 28.63-28.63 75.18 0 103.81l7.86 7.86c8.36-20.84 25.29-37.78 46.12-46.12l14.11 14.11c-14.7 9.69-24 26.1-24 44.94 0 29.55 24 53.56 53.56 53.56 18.84 0 35.26-9.3 44.95-24.01l14.1 14.11c-8.36 20.84-25.28 37.78-46.12 46.12l7.86 7.86c28.63 28.63 75.18 28.63 103.81 0 28.63-28.63 28.63-75.18 0-103.81l-7.86-7.86zm0 0" fill="#000" />
</svg>
