<!doctype html>
<?xml version="1.0" encoding="utf-8"?>
<!-- Generator: Adobe Illustrator 25.3.1, SVG Export Plug-In . SVG Version: 6.00 Build 0)  -->
<svg version="1.1" id="Layer_1" xmlns="http://www.w3.org/2000/svg" xmlns:xlink="http://www.w3.org/1999/xlink" x="0px" y="0px"
	 viewBox="0 0 229 58" style="enable-background:new 0 0 229 58;" xml:space="preserve">
<style type="text/css">
	.st0{clip-path:url(#SVGID_2_);}
	.st1{fill:url(#SVGID_3_);}
	.st2{clip-path:url(#SVGID_5_);}
	.st3{fill:url(#SVGID_6_);}
	.st4{clip-path:url(#SVGID_8_);}
	.st5{fill:url(#SVGID_9_);}
	.st6{fill:#3C3C3B;}
</style>
<svg viewBox="94.668 122.818 217.329 102.6" width="217.329" height="102.6">
  <defs>
    <linearGradient gradientUnits="userSpaceOnUse" x1="24.7" y1="-19" x2="24.7" y2="76.9" id="gradient-0">
      <stop offset="0" style="stop-color: rgba(230, 187, 77, 1)"></stop>
      <stop offset="1" style="stop-color: rgba(180, 136, 25, 1)"></stop>
    </linearGradient>
    <radialGradient gradientUnits="userSpaceOnUse" cx="24.6" cy="28.9" r="51.2" id="gradient-3">
      <stop offset="0" style="stop-color: rgba(50, 164, 92, 1)"></stop>
      <stop offset="1" style="stop-color: rgba(26, 86, 48, 1)"></stop>
    </radialGradient>
    <linearGradient gradientUnits="userSpaceOnUse" x1="25.4" y1="0.5" x2="25.4" y2="57" id="gradient-2">
      <stop offset="0" style="stop-color: rgba(141, 76, 227, 1)"></stop>
      <stop offset="1" style="stop-color: rgba(91, 27, 174, 1)"></stop>
    </linearGradient>
  </defs>
  <g id="Layer_2_1_" transform="matrix(1, 0, 0, 1, 121.268451, 145.218129)">
    <g id="Layer_1-2">
      <g>
        <g>
          <g>
            <defs>
              <path id="SVGID_1_" d="M23.3,1L1.2,13.7c-0.9,0.5-1.4,1.4-1.4,2.3v25.6c0,1,0.5,1.8,1.4,2.3l22.1,12.8c0.9,0.5,1.8,0.5,2.7,0
							L48.1,44c0.9-0.5,1.4-1.4,1.4-2.3V16.1c0-1-0.5-1.8-1.4-2.3L26,1C25.1,0.5,24.2,0.5,23.3,1"></path>
            </defs>
            <clipPath id="SVGID_2_">
              <path d="M23.3,1L1.2,13.7c-0.9,0.5-1.4,1.4-1.4,2.3v25.6c0,1,0.5,1.8,1.4,2.3l22.1,12.8c0.9,0.5,1.8,0.5,2.7,0
							L48.1,44c0.9-0.5,1.4-1.4,1.4-2.3V16.1c0-1-0.5-1.8-1.4-2.3L26,1C25.1,0.5,24.2,0.5,23.3,1" transform="matrix(1, 0, 0, 1, 0, 0)" style="overflow: visible;"></path>
            </clipPath>
            <g class="st0" style="clip-path: url(#SVGID_2_);">
              <path class="st1" d="M71.9,11.6L9.5-19l-32,65.3l62.4,30.6L71.9,11.6z" style="fill: url(#gradient-0);"></path>
            </g>
          </g>
        </g>
        <g>
          <g>
            <defs>
              <path id="SVGID_4_" d="M0.4,43.3c0.2,0.3,0.5,0.5,0.8,0.7l19,11l3.2,1.8c0.5,0.3,1,0.4,1.5,0.4c0.2,0,0.4,0,0.5-0.1l23.4-42.8
							c-0.2-0.2-0.4-0.4-0.6-0.5L33.7,5.4L26,0.9c-0.2-0.1-0.5-0.2-0.7-0.3L0.4,43.3z"></path>
            </defs>
            <clipPath id="SVGID_5_">
              <path d="M0.4,43.3c0.2,0.3,0.5,0.5,0.8,0.7l19,11l3.2,1.8c0.5,0.3,1,0.4,1.5,0.4c0.2,0,0.4,0,0.5-0.1l23.4-42.8
							c-0.2-0.2-0.4-0.4-0.6-0.5L33.7,5.4L26,0.9c-0.2-0.1-0.5-0.2-0.7-0.3L0.4,43.3z" transform="matrix(1, 0, 0, 1, 0, 0)" style="overflow: visible;"></path>
            </clipPath>
            <g class="st2" style="clip-path: url(#SVGID_5_);">
              <path class="st3" d="M-26.6,20.6l44.1,59.6l58.3-43.1l-44-59.5L-26.6,20.6z" style="fill: url(#gradient-3);"></path>
            </g>
          </g>
        </g>
        <g>
          <g>
            <defs>
              <path id="SVGID_7_" d="M24.4,0.5c-0.4,0-0.8,0.2-1.1,0.4l-22,12.8L25.1,57c0.3,0,0.7-0.2,1-0.3l22.1-12.8
							c0.7-0.4,1.2-1.1,1.3-1.8L25.1,0.5c-0.2-0.1-0.4-0.1-0.5-0.1C24.6,0.5,24.5,0.5,24.4,0.5"></path>
            </defs>
            <clipPath id="SVGID_8_">
              <path d="M24.4,0.5c-0.4,0-0.8,0.2-1.1,0.4l-22,12.8L25.1,57c0.3,0,0.7-0.2,1-0.3l22.1-12.8
							c0.7-0.4,1.2-1.1,1.3-1.8L25.1,0.5c-0.2-0.1-0.4-0.1-0.5-0.1C24.6,0.5,24.5,0.5,24.4,0.5" transform="matrix(1, 0, 0, 1, 0, 0)" style="overflow: visible;"></path>
            </clipPath>
            <g class="st4" style="clip-path: url(#SVGID_8_);">
              <path class="st5" d="M1.3,0.5V57h48.2V0.5H1.3z" style="fill-rule: nonzero; paint-order: fill; fill: url(#gradient-2);"></path>
            </g>
          </g>
        </g>
      </g>
      <g>
        <g>
          <g>
            <path class="st6" d="M65.5,27c-1.2-1.1-1.8-2.6-1.9-4.6c0-0.4,0-1.1,0-2c0-1,0-1.6,0-2.1c0.1-2,0.7-3.5,1.9-4.6
						c1.2-1.1,2.8-1.6,4.9-1.6c1.4,0,2.6,0.2,3.6,0.7c1,0.5,1.8,1.1,2.4,1.9c0.6,0.8,0.9,1.7,0.9,2.7v0c0,0.1,0,0.2-0.1,0.3
						c-0.1,0.1-0.2,0.1-0.3,0.1h-2.2c-0.2,0-0.3,0-0.4-0.1c-0.1-0.1-0.2-0.2-0.2-0.4c-0.2-1-0.6-1.6-1.2-2c-0.6-0.4-1.3-0.6-2.3-0.6
						c-2.2,0-3.3,1.2-3.4,3.7c0,0.4,0,1.1,0,1.9c0,0.9,0,1.5,0,2c0.1,2.5,1.2,3.7,3.4,3.7c0.9,0,1.7-0.2,2.2-0.6
						c0.6-0.4,1-1.1,1.2-2c0.1-0.2,0.1-0.4,0.2-0.4c0.1-0.1,0.2-0.1,0.4-0.1h2.2c0.1,0,0.3,0,0.4,0.1c0.1,0.1,0.1,0.2,0.1,0.3
						c0,1-0.3,1.9-0.9,2.7c-0.6,0.8-1.3,1.5-2.4,1.9c-1,0.5-2.2,0.7-3.6,0.7C68.3,28.6,66.7,28.1,65.5,27z" style="fill: rgb(60, 60, 59);"></path>
            <path class="st6" d="M81.3,27c-1.2-1.1-1.8-2.6-1.8-4.7c0-0.4,0-1.1,0-2c0-0.9,0-1.5,0-2c0.1-2,0.7-3.6,1.9-4.7
						c1.2-1.1,2.8-1.6,4.9-1.6c2,0,3.6,0.5,4.8,1.6c1.2,1.1,1.8,2.7,1.9,4.7c0,0.9,0,1.5,0,2c0,0.4,0,1.1,0,2
						c-0.1,2.1-0.7,3.7-1.9,4.7c-1.2,1.1-2.8,1.6-4.9,1.6C84.1,28.6,82.4,28.1,81.3,27z M88.6,25c0.6-0.6,0.9-1.6,1-2.8
						c0-0.9,0-1.5,0-1.9c0-0.4,0-1,0-1.9c0-1.3-0.4-2.2-1-2.8s-1.4-0.9-2.4-0.9c-1,0-1.8,0.3-2.4,0.9s-0.9,1.6-1,2.8
						c0,0.4,0,1.1,0,1.9c0,0.8,0,1.4,0,1.9c0,1.3,0.3,2.2,1,2.8c0.6,0.6,1.4,0.9,2.4,0.9S88,25.7,88.6,25z" style="fill: rgb(60, 60, 59);"></path>
            <path class="st6" d="M97.3,27c-1.2-1.1-1.8-2.6-1.8-4.7c0-0.4,0-1.1,0-2c0-0.9,0-1.5,0-2c0.1-2,0.7-3.6,1.9-4.7
						c1.2-1.1,2.8-1.6,4.9-1.6c2,0,3.6,0.5,4.8,1.6c1.2,1.1,1.8,2.7,1.9,4.7c0,0.9,0,1.5,0,2c0,0.4,0,1.1,0,2
						c-0.1,2.1-0.7,3.7-1.9,4.7c-1.2,1.1-2.8,1.6-4.9,1.6C100.1,28.6,98.4,28.1,97.3,27z M104.6,25c0.6-0.6,0.9-1.6,1-2.8
						c0-0.9,0-1.5,0-1.9c0-0.4,0-1,0-1.9c0-1.3-0.4-2.2-1-2.8s-1.4-0.9-2.4-0.9c-1,0-1.8,0.3-2.4,0.9s-0.9,1.6-1,2.8
						c0,0.4,0,1.1,0,1.9c0,0.8,0,1.4,0,1.9c0,1.3,0.3,2.2,1,2.8c0.6,0.6,1.4,0.9,2.4,0.9S104,25.7,104.6,25z" style="fill: rgb(60, 60, 59);"></path>
            <path class="st6" d="M112.1,28.2c-0.1-0.1-0.2-0.2-0.2-0.4v-15c0-0.2,0-0.3,0.1-0.4c0.1-0.1,0.2-0.2,0.4-0.2h2.1
						c0.2,0,0.3,0.1,0.4,0.2c0.1,0.1,0.2,0.2,0.2,0.4v5.4l5.1-5.5c0.2-0.3,0.5-0.4,0.9-0.4h2.3c0.1,0,0.2,0,0.3,0.1
						c0.1,0.1,0.1,0.2,0.1,0.3c0,0.1,0,0.2-0.1,0.3l-6.3,6.9l6.7,7.6c0.1,0.1,0.1,0.2,0.1,0.3c0,0.1,0,0.3-0.1,0.3
						c-0.1,0.1-0.2,0.1-0.3,0.1h-2.4c-0.3,0-0.6-0.1-0.7-0.2c-0.1-0.1-0.2-0.2-0.2-0.2l-5.5-6.1v5.9c0,0.2-0.1,0.3-0.2,0.4
						c-0.1,0.1-0.2,0.2-0.4,0.2h-2.1C112.3,28.4,112.2,28.3,112.1,28.2z" style="fill: rgb(60, 60, 59);"></path>
            <path class="st6" d="M 130.2 28.2 C 130.1 28.1 130 28 130 27.8 L 130 12.8 C 130 12.6 130 12.5 130.1 12.4 C 130.2 12.3 130.3 12.2 130.5 12.2 L 137.2 12.2 C 139 12.2 140.3 12.6 141.2 13.4 C 142.1 14.2 142.5 15.3 142.5 16.6 C 142.5 17.4 142.3 18.1 141.9 18.6 C 141.5 19.2 141.1 19.6 140.5 19.8 C 141.1 20.1 141.7 20.6 142.1 21.2 C 142.5 21.9 142.8 22.6 142.8 23.5 C 142.8 24.9 142.3 26.1 141.4 27 C 140.4 27.9 139.1 28.3 137.4 28.3 L 130.5 28.3 C 130.4 28.4 130.3 28.3 130.2 28.2 Z M 136.8 18.9 C 137.6 18.9 138.2 18.7 138.6 18.3 C 139 17.9 139.2 17.4 139.2 16.8 C 139.2 16.2 139 15.7 138.6 15.3 C 138.2 14.9 137.6 14.8 136.8 14.8 L 133.2 14.8 L 133.2 18.9 L 136.8 18.9 Z M 137.1 25.9 C 137.9 25.9 138.5 25.7 139 25.2 C 139.4 24.8 139.7 24.2 139.7 23.5 C 139.7 22.8 139.5 22.3 139 21.8 C 138.5 21.3 137.9 21.1 137.1 21.1 L 133.3 21.1 L 133.3 25.7 L 137.1 25.7 L 137.1 25.9 Z" style="fill: rgb(60, 60, 59);"></path>
            <path class="st6" d="M 163.3 27 C 162.1 25.9 161.5 24.4 161.5 22.3 C 161.5 21.9 161.5 21.2 161.5 20.3 C 161.5 19.4 161.5 18.8 161.5 18.3 C 161.6 16.3 162.2 14.7 163.4 13.6 C 164.6 12.5 166.2 12 168.3 12 C 170.3 12 171.9 12.5 173.1 13.6 C 174.3 14.7 174.9 16.3 175 18.3 C 175 19.2 175 19.8 175 20.3 C 175 20.7 175 21.4 175 22.3 C 174.9 24.4 174.3 26 173.1 27 C 171.9 28 170.3 28.6 168.2 28.6 C 166.1 28.6 164.5 28.1 163.3 27 Z M 170.6 25 C 171.2 24.4 171.5 23.4 171.6 22.2 C 171.6 21.3 171.6 20.7 171.6 20.3 C 171.6 19.9 171.6 19.3 171.6 18.4 C 171.6 17.1 171.2 16.2 170.6 15.6 C 170 15 169.2 14.7 168.2 14.7 C 167.2 14.7 166.4 15 165.8 15.6 C 165.2 16.2 164.9 17.2 164.8 18.4 C 164.8 18.8 164.8 19.5 164.8 20.3 C 164.8 21.1 164.8 21.7 164.8 22.2 C 164.8 23.5 165.1 24.4 165.8 25 C 166.4 25.6 167.2 25.9 168.2 25.9 C 169.2 25.9 170 25.7 170.6 25 Z" style="fill: rgb(60, 60, 59);"></path>
            <path class="st6" d="M 146.932 26.872 C 145.732 25.772 145.132 24.272 145.132 22.172 C 145.132 21.772 145.132 21.072 145.132 20.172 C 145.132 19.272 145.132 18.672 145.132 18.172 C 145.232 16.172 145.832 14.572 147.032 13.472 C 148.232 12.372 149.832 11.872 151.932 11.872 C 153.932 11.872 155.532 12.372 156.732 13.472 C 157.932 14.572 158.532 16.172 158.632 18.172 C 158.632 19.072 158.632 19.672 158.632 20.172 C 158.632 20.572 158.632 21.272 158.632 22.172 C 158.532 24.272 157.932 25.872 156.732 26.872 C 155.532 27.872 153.932 28.472 151.832 28.472 C 149.732 28.472 148.132 27.972 146.932 26.872 Z M 154.232 24.872 C 154.832 24.272 155.132 23.272 155.232 22.072 C 155.232 21.172 155.232 20.572 155.232 20.172 C 155.232 19.772 155.232 19.172 155.232 18.272 C 155.232 16.972 154.832 16.072 154.232 15.472 C 153.632 14.872 152.832 14.572 151.832 14.572 C 150.832 14.572 150.032 14.872 149.432 15.472 C 148.832 16.072 148.532 17.072 148.432 18.272 C 148.432 18.672 148.432 19.372 148.432 20.172 C 148.432 20.972 148.432 21.572 148.432 22.072 C 148.432 23.372 148.732 24.272 149.432 24.872 C 150.032 25.472 150.832 25.772 151.832 25.772 C 152.832 25.772 153.632 25.572 154.232 24.872 Z" style="fill: rgb(60, 60, 59);"></path>
            <path class="st6" d="M 178.629 27.837 C 178.529 27.737 178.429 27.637 178.429 27.437 L 178.429 12.437 C 178.429 12.237 178.429 12.137 178.529 12.037 C 178.629 11.937 178.729 11.837 178.929 11.837 L 181.029 11.837 C 181.229 11.837 181.329 11.937 181.429 12.037 C 181.529 12.137 181.629 12.237 181.629 12.437 L 181.629 17.837 L 186.729 12.337 C 186.929 12.037 187.229 11.937 187.629 11.937 L 189.929 11.937 C 190.029 11.937 190.129 11.937 190.229 12.037 C 190.329 12.137 190.329 12.237 190.329 12.337 C 190.329 12.437 190.329 12.537 190.229 12.637 L 183.929 19.537 L 190.629 27.137 C 190.729 27.237 190.729 27.337 190.729 27.437 C 190.729 27.537 190.729 27.737 190.629 27.737 C 190.529 27.837 190.429 27.837 190.329 27.837 L 187.929 27.837 C 187.629 27.837 187.329 27.737 187.229 27.637 C 187.129 27.537 187.029 27.437 187.029 27.437 L 181.529 21.337 L 181.529 27.237 C 181.529 27.437 181.429 27.537 181.329 27.637 C 181.229 27.737 181.129 27.837 180.929 27.837 L 178.829 27.837 C 178.829 28.037 178.729 27.937 178.629 27.837 Z" style="fill: rgb(60, 60, 59);"></path>
          </g>
        </g>
        <g>
          <g>
            <path class="st6" d="M64.9,45.3c-0.1-0.1-0.1-0.1-0.1-0.2v-7.8c0-0.1,0-0.2,0.1-0.2S65,37,65.1,37h0.6c0.1,0,0.2,0.1,0.3,0.2
						l2.5,4.9l2.6-4.9c0.1-0.1,0.2-0.2,0.3-0.2h0.6c0.1,0,0.2,0,0.2,0.1s0.1,0.1,0.1,0.2v7.8c0,0.1,0,0.1-0.1,0.2
						c-0.1,0.1-0.1,0.1-0.2,0.1h-0.5c-0.1,0-0.1,0-0.2-0.1s-0.1-0.1-0.1-0.2v-5.9l-2,3.9c-0.1,0.2-0.2,0.2-0.4,0.2h-0.4
						c-0.2,0-0.3-0.1-0.4-0.2l-2-3.9v5.9c0,0.1,0,0.1-0.1,0.2c-0.1,0.1-0.1,0.1-0.2,0.1h-0.5C65,45.3,64.9,45.3,64.9,45.3z" style="fill: rgb(60, 60, 59);"></path>
            <path class="st6" d="M74.7,45.2c-0.3-0.2-0.6-0.4-0.8-0.6c-0.2-0.3-0.3-0.6-0.3-0.9c0-0.5,0.2-1,0.6-1.3s1-0.6,1.7-0.7l1.8-0.2
						v-0.3c0-0.8-0.5-1.2-1.4-1.2c-0.4,0-0.7,0.1-0.9,0.2c-0.2,0.1-0.4,0.3-0.5,0.5c0,0.1-0.1,0.1-0.1,0.2c0,0-0.1,0-0.1,0h-0.5
						c-0.1,0-0.1,0-0.2-0.1c-0.1-0.1-0.1-0.1-0.1-0.2c0-0.2,0.1-0.4,0.3-0.6c0.2-0.2,0.4-0.5,0.8-0.6c0.4-0.2,0.8-0.3,1.3-0.3
						c0.9,0,1.5,0.2,1.9,0.6c0.4,0.4,0.6,0.9,0.6,1.5v3.9c0,0.1,0,0.1-0.1,0.2c-0.1,0.1-0.1,0.1-0.2,0.1h-0.5c-0.1,0-0.1,0-0.2-0.1
						c0-0.1-0.1-0.1-0.1-0.2v-0.5c-0.2,0.3-0.4,0.5-0.8,0.7c-0.3,0.2-0.8,0.3-1.3,0.3C75.4,45.5,75,45.4,74.7,45.2z M77.3,44.1
						c0.3-0.3,0.5-0.8,0.5-1.5v-0.3l-1.4,0.2c-0.6,0.1-1,0.2-1.3,0.4c-0.3,0.2-0.4,0.4-0.4,0.7c0,0.3,0.1,0.6,0.4,0.7
						c0.3,0.2,0.6,0.3,0.9,0.3C76.6,44.6,77,44.4,77.3,44.1z" style="fill: rgb(60, 60, 59);"></path>
            <path class="st6" d="M81,44.7c-0.4-0.5-0.6-1.2-0.7-2l0-0.4l0-0.4c0-0.8,0.3-1.5,0.7-2c0.4-0.5,1-0.8,1.9-0.8s1.5,0.3,1.9,0.9
						v-2.7c0-0.1,0-0.1,0.1-0.2c0.1-0.1,0.1-0.1,0.2-0.1h0.5c0.1,0,0.1,0,0.2,0.1c0.1,0.1,0.1,0.1,0.1,0.2v7.9c0,0.1,0,0.1-0.1,0.2
						c-0.1,0.1-0.1,0.1-0.2,0.1h-0.5c-0.1,0-0.1,0-0.2-0.1c0-0.1-0.1-0.1-0.1-0.2v-0.5c-0.5,0.6-1.1,0.9-2,0.9
						C82,45.5,81.4,45.2,81,44.7z M84.3,44c0.3-0.4,0.4-0.8,0.5-1.3c0-0.1,0-0.2,0-0.5c0-0.2,0-0.4,0-0.5c0-0.5-0.2-0.9-0.5-1.3
						S83.6,40,83.1,40c-0.6,0-1,0.2-1.2,0.5s-0.4,0.8-0.4,1.4l0,0.3c0,1.5,0.6,2.3,1.7,2.3C83.7,44.5,84.1,44.4,84.3,44z" style="fill: rgb(60, 60, 59);"></path>
            <path class="st6" d="M88.2,44.7c-0.5-0.5-0.7-1.2-0.8-2.1l0-0.4l0-0.4c0-0.9,0.3-1.5,0.8-2c0.5-0.5,1.1-0.8,1.9-0.8
						c0.9,0,1.5,0.3,2,0.8c0.5,0.6,0.7,1.3,0.7,2.3v0.2c0,0.1,0,0.1-0.1,0.2c-0.1,0.1-0.1,0.1-0.2,0.1h-4.1v0.1c0,0.5,0.2,1,0.5,1.3
						s0.7,0.5,1.2,0.5c0.4,0,0.7-0.1,0.9-0.2c0.2-0.1,0.4-0.3,0.5-0.5c0.1-0.1,0.1-0.2,0.2-0.2s0.1,0,0.2,0h0.5c0.1,0,0.1,0,0.2,0.1
						c0.1,0,0.1,0.1,0.1,0.2c0,0.2-0.1,0.4-0.3,0.6c-0.2,0.2-0.5,0.5-0.9,0.6c-0.4,0.2-0.8,0.3-1.3,0.3
						C89.3,45.5,88.7,45.2,88.2,44.7z M91.8,41.8L91.8,41.8c0-0.6-0.2-1-0.5-1.4c-0.3-0.3-0.7-0.5-1.2-0.5c-0.5,0-0.9,0.2-1.2,0.5
						s-0.4,0.8-0.4,1.4v0H91.8z" style="fill: rgb(60, 60, 59);"></path>
            <path class="st6" d="M98.4,45.3c-0.1,0-0.1-0.1-0.1-0.2l-1.7-5.5l0-0.1c0-0.1,0-0.1,0.1-0.2c0,0,0.1-0.1,0.2-0.1h0.5
						c0.1,0,0.1,0,0.2,0.1c0.1,0,0.1,0.1,0.1,0.1l1.3,4.5l1.4-4.5c0-0.1,0.1-0.1,0.1-0.2c0.1-0.1,0.1-0.1,0.2-0.1h0.4
						c0.1,0,0.2,0,0.2,0.1c0.1,0.1,0.1,0.1,0.1,0.2l1.4,4.5l1.3-4.5c0,0,0-0.1,0.1-0.1c0.1,0,0.1-0.1,0.2-0.1h0.5
						c0.1,0,0.1,0,0.2,0.1c0,0,0.1,0.1,0.1,0.2l0,0.1l-1.7,5.5c0,0.1-0.1,0.2-0.1,0.2s-0.1,0.1-0.2,0.1h-0.4c-0.2,0-0.3-0.1-0.4-0.3
						l-1.4-4.3l-1.4,4.3c-0.1,0.2-0.2,0.3-0.4,0.3h-0.4C98.5,45.3,98.4,45.3,98.4,45.3z" style="fill: rgb(60, 60, 59);"></path>
            <path class="st6" d="M106.5,37.9c-0.1-0.1-0.1-0.1-0.1-0.2v-0.6c0-0.1,0-0.1,0.1-0.2s0.1-0.1,0.2-0.1h0.7c0.1,0,0.1,0,0.2,0.1
						s0.1,0.1,0.1,0.2v0.6c0,0.1,0,0.1-0.1,0.2c-0.1,0.1-0.1,0.1-0.2,0.1h-0.7C106.6,38,106.5,38,106.5,37.9z M106.5,45.3
						c-0.1-0.1-0.1-0.1-0.1-0.2v-5.6c0-0.1,0-0.1,0.1-0.2c0.1-0.1,0.1-0.1,0.2-0.1h0.5c0.1,0,0.1,0,0.2,0.1c0.1,0.1,0.1,0.1,0.1,0.2
						v5.6c0,0.1,0,0.1-0.1,0.2s-0.1,0.1-0.2,0.1h-0.5C106.7,45.3,106.6,45.3,106.5,45.3z" style="fill: rgb(60, 60, 59);"></path>
            <path class="st6" d="M109.9,43.3v-3.2h-0.9c-0.1,0-0.1,0-0.2-0.1s-0.1-0.1-0.1-0.2v-0.4c0-0.1,0-0.1,0.1-0.2
						c0-0.1,0.1-0.1,0.2-0.1h0.9v-2c0-0.1,0-0.1,0.1-0.2c0-0.1,0.1-0.1,0.2-0.1h0.5c0.1,0,0.1,0,0.2,0.1c0.1,0.1,0.1,0.1,0.1,0.2v2
						h1.5c0.1,0,0.1,0,0.2,0.1c0.1,0.1,0.1,0.1,0.1,0.2v0.4c0,0.1,0,0.1-0.1,0.2c-0.1,0-0.1,0.1-0.2,0.1h-1.5v3.1
						c0,0.4,0.1,0.7,0.2,0.9s0.4,0.3,0.7,0.3h0.7c0.1,0,0.1,0,0.2,0.1s0.1,0.1,0.1,0.2v0.4c0,0.1,0,0.1-0.1,0.2s-0.1,0.1-0.2,0.1
						h-0.8C110.5,45.3,109.9,44.7,109.9,43.3z" style="fill: rgb(60, 60, 59);"></path>
            <path class="st6" d="M114,45.3c-0.1-0.1-0.1-0.1-0.1-0.2v-7.9c0-0.1,0-0.2,0.1-0.2c0.1,0,0.1-0.1,0.2-0.1h0.5
						c0.1,0,0.2,0,0.2,0.1c0,0,0.1,0.1,0.1,0.2V40c0.2-0.3,0.5-0.5,0.8-0.7c0.3-0.2,0.7-0.2,1.2-0.2c0.8,0,1.4,0.2,1.8,0.7
						c0.4,0.5,0.6,1.1,0.6,1.9v3.4c0,0.1,0,0.1-0.1,0.2s-0.1,0.1-0.2,0.1h-0.6c-0.1,0-0.1,0-0.2-0.1s-0.1-0.1-0.1-0.2v-3.3
						c0-0.6-0.1-1-0.4-1.3c-0.3-0.3-0.7-0.5-1.2-0.5c-0.5,0-0.9,0.2-1.2,0.5c-0.3,0.3-0.5,0.8-0.5,1.3v3.3c0,0.1,0,0.1-0.1,0.2
						c-0.1,0.1-0.1,0.1-0.2,0.1h-0.5C114.1,45.3,114.1,45.3,114,45.3z" style="fill: rgb(60, 60, 59);"></path>
            <path class="st6" d="M124.3,45.3c0-0.1-0.1-0.1-0.1-0.2v-7.8c0-0.1,0-0.2,0.1-0.2c0-0.1,0.1-0.1,0.2-0.1h0.5c0.1,0,0.1,0,0.2,0
						c0,0,0.1,0.1,0.1,0.1l4,6.1v-6c0-0.1,0-0.2,0.1-0.2c0.1-0.1,0.1-0.1,0.2-0.1h0.5c0.1,0,0.2,0,0.2,0.1c0.1,0.1,0.1,0.1,0.1,0.2
						v7.7c0,0.1,0,0.1-0.1,0.2c-0.1,0.1-0.1,0.1-0.2,0.1h-0.5c-0.1,0-0.2-0.1-0.3-0.2l-4-6.1v6c0,0.1,0,0.1-0.1,0.2
						c-0.1,0.1-0.1,0.1-0.2,0.1h-0.5C124.4,45.3,124.3,45.3,124.3,45.3z" style="fill: rgb(60, 60, 59);"></path>
            <path class="st6" d="M132.8,44.7c-0.5-0.5-0.7-1.1-0.8-2l0-0.5l0-0.5c0-0.8,0.3-1.5,0.8-2c0.5-0.5,1.1-0.7,2-0.7s1.5,0.2,2,0.7
						c0.5,0.5,0.7,1.1,0.8,2c0,0.2,0,0.3,0,0.5s0,0.3,0,0.5c0,0.8-0.3,1.5-0.8,2c-0.5,0.5-1.1,0.7-2,0.7S133.3,45.2,132.8,44.7z
						 M136,44.1c0.3-0.3,0.5-0.8,0.5-1.4c0-0.1,0-0.2,0-0.5s0-0.4,0-0.5c0-0.6-0.2-1.1-0.5-1.4c-0.3-0.3-0.7-0.5-1.2-0.5
						s-0.9,0.2-1.2,0.5c-0.3,0.3-0.5,0.8-0.5,1.4l0,0.5l0,0.5c0,0.6,0.2,1.1,0.5,1.4c0.3,0.3,0.7,0.5,1.2,0.5S135.7,44.4,136,44.1z" style="fill: rgb(60, 60, 59);"></path>
            <path class="st6" d="M139.5,44.7c-0.4-0.5-0.6-1.2-0.7-2l0-0.4l0-0.4c0-0.8,0.3-1.5,0.7-2c0.4-0.5,1-0.8,1.9-0.8
						c0.8,0,1.5,0.3,1.9,0.9v-2.7c0-0.1,0-0.1,0.1-0.2c0.1-0.1,0.1-0.1,0.2-0.1h0.5c0.1,0,0.1,0,0.2,0.1c0.1,0.1,0.1,0.1,0.1,0.2
						v7.9c0,0.1,0,0.1-0.1,0.2s-0.1,0.1-0.2,0.1h-0.5c-0.1,0-0.1,0-0.2-0.1c0-0.1-0.1-0.1-0.1-0.2v-0.5c-0.5,0.6-1.1,0.9-2,0.9
						C140.5,45.5,139.9,45.2,139.5,44.7z M142.8,44c0.3-0.4,0.4-0.8,0.5-1.3c0-0.1,0-0.2,0-0.5c0-0.2,0-0.4,0-0.5
						c0-0.5-0.2-0.9-0.5-1.3s-0.7-0.5-1.2-0.5c-0.6,0-1,0.2-1.2,0.5c-0.3,0.4-0.4,0.8-0.4,1.4l0,0.3c0,1.5,0.6,2.3,1.7,2.3
						C142.1,44.5,142.5,44.4,142.8,44z" style="fill: rgb(60, 60, 59);"></path>
            <path class="st6" d="M146.7,44.7c-0.5-0.5-0.7-1.2-0.8-2.1l0-0.4l0-0.4c0-0.9,0.3-1.5,0.8-2c0.5-0.5,1.1-0.8,1.9-0.8
						c0.9,0,1.5,0.3,2,0.8c0.5,0.6,0.7,1.3,0.7,2.3v0.2c0,0.1,0,0.1-0.1,0.2c-0.1,0.1-0.1,0.1-0.2,0.1h-4.1v0.1c0,0.5,0.2,1,0.5,1.3
						s0.7,0.5,1.2,0.5c0.4,0,0.7-0.1,0.9-0.2c0.2-0.1,0.4-0.3,0.5-0.5c0.1-0.1,0.1-0.2,0.2-0.2c0,0,0.1,0,0.2,0h0.5
						c0.1,0,0.1,0,0.2,0.1c0.1,0,0.1,0.1,0.1,0.2c0,0.2-0.1,0.4-0.3,0.6c-0.2,0.2-0.5,0.5-0.9,0.6c-0.4,0.2-0.8,0.3-1.3,0.3
						C147.8,45.5,147.1,45.2,146.7,44.7z M150.3,41.8L150.3,41.8c0-0.6-0.2-1-0.5-1.4s-0.7-0.5-1.2-0.5c-0.5,0-0.9,0.2-1.2,0.5
						s-0.4,0.8-0.4,1.4v0H150.3z" style="fill: rgb(60, 60, 59);"></path>
            <path class="st6" d="M152.8,45.3c-0.1-0.1-0.1-0.1-0.1-0.2v-0.8c0-0.1,0-0.1,0.1-0.2s0.1-0.1,0.2-0.1h0.8c0.1,0,0.1,0,0.2,0.1
						s0.1,0.1,0.1,0.2v0.8c0,0.1,0,0.1-0.1,0.2s-0.1,0.1-0.2,0.1H153C152.9,45.3,152.8,45.3,152.8,45.3z" style="fill: rgb(60, 60, 59);"></path>
            <path class="st6" d="M154.4,47.5c0-0.1-0.1-0.1-0.1-0.2V47c0-0.1,0-0.1,0.1-0.2c0,0,0.1-0.1,0.2-0.1h0.2c0.4,0,0.6-0.1,0.8-0.3
						c0.1-0.2,0.2-0.5,0.2-0.9v-6.1c0-0.1,0-0.2,0.1-0.2c0.1,0,0.1-0.1,0.2-0.1h0.5c0.1,0,0.1,0,0.2,0.1c0.1,0.1,0.1,0.1,0.1,0.2
						v6.1c0,1.4-0.7,2.1-2,2.1h-0.2C154.5,47.6,154.5,47.6,154.4,47.5z M155.7,37.9c-0.1-0.1-0.1-0.1-0.1-0.2v-0.6
						c0-0.1,0-0.1,0.1-0.2c0.1-0.1,0.1-0.1,0.2-0.1h0.7c0.1,0,0.1,0,0.2,0.1s0.1,0.1,0.1,0.2v0.6c0,0.1,0,0.1-0.1,0.2
						c-0.1,0.1-0.1,0.1-0.2,0.1h-0.7C155.8,38,155.8,38,155.7,37.9z" style="fill: rgb(60, 60, 59);"></path>
            <path class="st6" d="M159.3,45.2c-0.4-0.2-0.7-0.4-0.8-0.6c-0.2-0.2-0.3-0.4-0.3-0.6c0-0.1,0-0.1,0.1-0.2
						c0.1,0,0.1-0.1,0.2-0.1h0.5c0,0,0.1,0,0.1,0c0,0,0.1,0.1,0.1,0.1c0.2,0.2,0.4,0.4,0.6,0.5c0.2,0.1,0.5,0.2,0.9,0.2
						c0.4,0,0.8-0.1,1-0.2c0.3-0.2,0.4-0.4,0.4-0.7c0-0.2-0.1-0.4-0.2-0.5c-0.1-0.1-0.3-0.2-0.6-0.3c-0.3-0.1-0.6-0.2-1.1-0.3
						c-0.7-0.2-1.2-0.4-1.5-0.7s-0.4-0.7-0.4-1.1c0-0.3,0.1-0.6,0.3-0.8c0.2-0.3,0.4-0.5,0.8-0.7c0.3-0.2,0.8-0.3,1.2-0.3
						c0.5,0,0.9,0.1,1.3,0.2c0.4,0.2,0.6,0.4,0.8,0.6c0.2,0.2,0.3,0.4,0.3,0.6c0,0.1,0,0.1-0.1,0.2c-0.1,0-0.1,0.1-0.2,0.1h-0.5
						c-0.1,0-0.2,0-0.2-0.1c-0.1-0.2-0.2-0.3-0.3-0.4c-0.1-0.1-0.2-0.2-0.4-0.2c-0.2-0.1-0.4-0.1-0.7-0.1c-0.4,0-0.7,0.1-0.9,0.2
						c-0.2,0.2-0.3,0.4-0.3,0.6c0,0.2,0,0.3,0.1,0.4c0.1,0.1,0.3,0.2,0.5,0.3c0.2,0.1,0.6,0.2,1.1,0.3c0.8,0.2,1.3,0.4,1.6,0.7
						s0.5,0.7,0.5,1.1c0,0.3-0.1,0.7-0.3,0.9c-0.2,0.3-0.5,0.5-0.9,0.7c-0.4,0.2-0.8,0.2-1.4,0.2C160.2,45.5,159.7,45.4,159.3,45.2z
						" style="fill: rgb(60, 60, 59);"></path>
          </g>
        </g>
      </g>
    </g>
  </g>
</svg>